<?xml version="1.0" encoding="UTF-8"?>
<svg width="184.9" height="54.8" xmlns="http://www.w3.org/2000/svg" version="1.1" viewBox="0 0 184.9 54.8">
  <defs>
    <style>
      .st0 {
        fill: #4285f4;
      }

      .st1 {
        fill: #a6a6a6;
      }

      .st2 {
        stroke: #fff;
        stroke-miterlimit: 10;
        stroke-width: .2px;
      }

      .st2, .st3 {
        fill: #fff;
      }

      .st4 {
        fill: #34a853;
      }

      .st5 {
        fill: #fbbc04;
      }

      .st6 {
        fill: #ea4335;
      }
    </style>
  </defs>
  <rect y="0" width="184.9" height="54.8" rx="6.8" ry="6.8"/>
  <path class="st1" d="M178.1,1.1c3.2,0,5.8,2.6,5.8,5.8v41.1c0,3.2-2.6,5.8-5.8,5.8H6.8c-3.2,0-5.8-2.6-5.8-5.8V6.9C1.1,3.7,3.7,1.1,6.8,1.1h171.2M178.1,0H6.8C3.1,0,0,3.1,0,6.9v41.1c0,3.8,3.1,6.8,6.8,6.8h171.2c3.8,0,6.8-3.1,6.8-6.8V6.9C184.9,3.1,181.9,0,178.1,0h0Z"/>
  <g>
    <path class="st2" d="M65,14c0,1.1-.3,2.1-1,2.7-.8.8-1.8,1.2-3,1.2s-2.2-.4-3-1.2c-.8-.8-1.2-1.8-1.2-3.1s.4-2.2,1.2-3.1c.8-.8,1.8-1.2,3-1.2s1.2.1,1.7.3c.5.2,1,.5,1.3.9l-.7.7c-.5-.7-1.3-1-2.3-1s-1.6.3-2.2.9c-.6.6-.9,1.4-.9,2.4s.3,1.8.9,2.4c.6.6,1.4.9,2.2.9s1.7-.3,2.3-.9c.4-.4.6-1,.7-1.7h-3v-1h4c0,.2,0,.4,0,.6Z"/>
    <path class="st2" d="M71.3,10.6h-3.7v2.6h3.4v1h-3.4v2.6h3.7v1h-4.8v-8.2h4.8v1Z"/>
    <path class="st2" d="M75.7,17.8h-1.1v-7.2h-2.3v-1h5.6v1h-2.3v7.2Z"/>
    <path class="st2" d="M82.1,17.8v-8.2h1.1v8.2h-1.1Z"/>
    <path class="st2" d="M87.9,17.8h-1.1v-7.2h-2.3v-1h5.6v1h-2.3v7.2Z"/>
    <path class="st2" d="M100.8,16.7c-.8.8-1.8,1.2-3,1.2s-2.2-.4-3-1.2c-.8-.8-1.2-1.8-1.2-3s.4-2.2,1.2-3c.8-.8,1.8-1.2,3-1.2s2.2.4,3,1.3c.8.8,1.2,1.8,1.2,3s-.4,2.2-1.2,3ZM95.6,16.1c.6.6,1.4.9,2.2.9s1.6-.3,2.2-.9c.6-.6.9-1.4.9-2.4s-.3-1.7-.9-2.4c-.6-.6-1.4-.9-2.2-.9s-1.6.3-2.2.9c-.6.6-.9,1.4-.9,2.4s.3,1.7.9,2.4Z"/>
    <path class="st2" d="M103.5,17.8v-8.2h1.3l4,6.4h0v-1.6s0-4.8,0-4.8h1.1v8.2h-1.1l-4.2-6.7h0v1.6s0,5.1,0,5.1h-1.1Z"/>
  </g>
  <path class="st3" d="M93.3,29.8c-3.2,0-5.8,2.4-5.8,5.8s2.6,5.8,5.8,5.8,5.8-2.5,5.8-5.8-2.6-5.8-5.8-5.8ZM93.3,39.2c-1.8,0-3.3-1.5-3.3-3.5s1.5-3.5,3.3-3.5,3.3,1.4,3.3,3.5-1.5,3.5-3.3,3.5ZM80.6,29.8c-3.2,0-5.8,2.4-5.8,5.8s2.6,5.8,5.8,5.8,5.8-2.5,5.8-5.8-2.6-5.8-5.8-5.8ZM80.6,39.2c-1.8,0-3.3-1.5-3.3-3.5s1.5-3.5,3.3-3.5,3.3,1.4,3.3,3.5-1.5,3.5-3.3,3.5ZM65.4,31.6v2.5h5.9c-.2,1.4-.6,2.4-1.3,3.1s-2.2,1.8-4.6,1.8c-3.6,0-6.5-2.9-6.5-6.6s2.8-6.6,6.5-6.6,3.4.8,4.5,1.8l1.7-1.7c-1.5-1.4-3.4-2.5-6.2-2.5-5,0-9.2,4.1-9.2,9s4.2,9,9.2,9,4.7-.9,6.3-2.5c1.6-1.6,2.1-3.9,2.1-5.8s0-1.1-.1-1.5h-8.3ZM127.5,33.5c-.5-1.3-2-3.7-5-3.7s-5.5,2.4-5.5,5.8,2.5,5.8,5.8,5.8,4.2-1.6,4.9-2.6l-2-1.3c-.7,1-1.6,1.6-2.9,1.6s-2.2-.6-2.8-1.8l7.8-3.2-.3-.7ZM119.5,35.4c0-2.3,1.7-3.4,3-3.4s1.9.5,2.2,1.2l-5.2,2.2ZM113.2,41.1h2.6v-17.1h-2.6v17.1ZM109,31.1h0c-.6-.7-1.7-1.3-3.1-1.3-2.9,0-5.6,2.6-5.6,5.8s2.7,5.8,5.6,5.8,2.5-.6,3.1-1.3h0v.8c0,2.2-1.2,3.4-3.1,3.4s-2.5-1.1-2.9-2.1l-2.2.9c.6,1.5,2.3,3.4,5.2,3.4s5.5-1.8,5.5-6.1v-10.5h-2.4v.9ZM106.1,39.2c-1.8,0-3.2-1.5-3.2-3.5s1.5-3.6,3.2-3.6,3.1,1.5,3.1,3.6-1.4,3.5-3.1,3.5ZM139.5,24h-6.1v17.1h2.6v-6.5h3.6c2.8,0,5.6-2.1,5.6-5.3s-2.8-5.3-5.6-5.3ZM139.5,32.2h-3.6v-5.9h3.6c1.9,0,3,1.6,3,2.9s-1.1,2.9-3,2.9ZM155.3,29.8c-1.9,0-3.8.8-4.6,2.6l2.3.9c.5-.9,1.4-1.3,2.3-1.3s2.7.8,2.7,2.2v.2c-.5-.3-1.5-.7-2.7-.7-2.4,0-4.9,1.3-4.9,3.9s2,3.8,4.3,3.8,2.7-.8,3.3-1.7h0v1.3h2.5v-6.6c0-3-2.3-4.7-5.2-4.7ZM155,39.2c-.8,0-2-.4-2-1.5s1.5-1.8,2.7-1.8,1.7.2,2.3.6c-.2,1.6-1.6,2.7-3,2.7ZM169.5,30.1l-2.9,7.4h0l-3-7.4h-2.8l4.6,10.4-2.6,5.8h2.7l7-16.2h-2.8ZM146.5,41.1h2.6v-17.1h-2.6v17.1Z"/>
  <g>
    <path class="st6" d="M28.4,26.6l-14.6,15.5s0,0,0,0c.4,1.7,2,2.9,3.8,2.9s1.4-.2,2-.5h0s16.4-9.5,16.4-9.5l-7.7-8.4Z"/>
    <path class="st5" d="M43.1,24h0s-7.1-4.1-7.1-4.1l-8,7.1,8,8,7.1-4.1c1.2-.7,2.1-2,2.1-3.5s-.8-2.8-2.1-3.5Z"/>
    <path class="st0" d="M13.8,12.7c0,.3-.1.7-.1,1v27.4c0,.4,0,.7.1,1l15.1-15.1-15.1-14.3Z"/>
    <path class="st4" d="M28.5,27.4l7.5-7.5-16.4-9.5c-.6-.4-1.3-.6-2-.6-1.8,0-3.4,1.2-3.8,2.9,0,0,0,0,0,0l14.7,14.7Z"/>
  </g>
</svg>
