<?xml version="1.0" standalone="no"?>
<!DOCTYPE svg PUBLIC "-//W3C//DTD SVG 20010904//EN"
 "http://www.w3.org/TR/2001/REC-SVG-20010904/DTD/svg10.dtd">
<svg version="1.0" xmlns="http://www.w3.org/2000/svg"
 width="700.000000pt" height="700.000000pt" viewBox="0 0 700.000000 700.000000"
 preserveAspectRatio="xMidYMid meet">
<metadata>
Created by potrace 1.14, written by Peter Selinger 2001-2017
</metadata>
<g transform="translate(0.000000,700.000000) scale(0.100000,-0.100000)"
fill="#000000" stroke="none">
<path d="M3298 6995 c-2 -1 -46 -5 -99 -9 -53 -4 -104 -8 -115 -10 -10 -2 -46
-7 -79 -11 -32 -4 -68 -9 -80 -11 -23 -4 -97 -19 -168 -34 -189 -38 -653 -231
-877 -364 -204 -121 -643 -433 -789 -561 -138 -120 -284 -295 -414 -495 -316
-485 -386 -596 -432 -685 -97 -190 -183 -514 -229 -860 -13 -93 -14 -490 -2
-585 2 -19 7 -69 10 -110 12 -148 36 -341 52 -423 2 -12 6 -38 9 -58 10 -67
65 -282 92 -359 47 -134 133 -297 272 -510 31 -47 61 -94 67 -105 68 -122 292
-486 326 -530 159 -208 277 -312 577 -506 480 -312 703 -421 1192 -582 137
-46 268 -77 509 -123 74 -14 167 -32 205 -41 39 -8 124 -16 190 -18 138 -4
249 13 495 75 164 42 266 64 340 75 43 6 325 58 381 69 185 39 347 127 622
339 73 55 222 161 332 236 110 74 212 144 227 155 14 12 41 32 59 46 175 132
478 535 625 830 71 145 211 521 263 710 23 84 59 247 67 300 2 19 7 44 9 56 6
28 23 147 31 215 3 30 8 65 10 79 26 148 25 594 -1 755 -18 111 -23 138 -46
235 -28 122 -71 264 -151 510 -141 430 -211 573 -417 845 -154 204 -368 429
-521 547 -184 142 -634 430 -815 521 -302 152 -657 265 -1024 327 -99 17 -215
37 -258 46 -66 14 -433 29 -445 19z m667 -570 c44 -7 100 -15 125 -18 38 -5
139 -21 255 -43 285 -51 713 -250 996 -462 111 -83 162 -127 258 -223 307
-306 607 -737 732 -1049 23 -60 76 -235 85 -285 11 -60 25 -140 29 -165 10
-56 34 -239 40 -290 3 -30 8 -74 11 -97 24 -188 24 -531 -1 -673 -2 -14 -7
-47 -10 -75 -4 -27 -8 -59 -9 -70 -2 -11 -7 -45 -10 -75 -21 -161 -77 -389
-122 -500 -121 -299 -368 -670 -602 -905 -283 -284 -378 -352 -792 -567 -58
-30 -143 -72 -190 -92 -47 -21 -100 -44 -118 -52 -116 -53 -479 -155 -722
-203 -30 -6 -66 -14 -80 -16 -14 -3 -47 -8 -75 -11 -27 -3 -57 -7 -65 -10 -8
-3 -136 -7 -285 -9 -282 -5 -318 -2 -505 44 -84 20 -267 77 -325 101 -16 7
-39 16 -50 20 -339 127 -642 281 -830 420 -156 115 -251 221 -502 560 -155
210 -212 293 -287 424 -170 294 -346 783 -372 1031 -3 33 -8 74 -10 90 -5 34
-5 365 0 410 2 17 6 62 10 100 13 124 16 149 21 185 3 19 8 55 10 80 13 132
18 173 35 285 33 221 66 319 165 490 56 96 73 121 251 367 54 75 122 170 149
209 168 244 279 368 445 499 190 150 473 320 650 391 83 32 312 104 400 124
189 44 247 56 310 61 41 4 76 7 77 8 2 1 188 3 415 3 288 0 437 -3 493 -12z"/>
<path d="M2615 5100 c-105 -42 -141 -59 -375 -184 -151 -81 -208 -119 -250
-169 -14 -17 -68 -66 -120 -110 -52 -43 -106 -96 -120 -118 -14 -21 -41 -55
-60 -75 -22 -25 -43 -67 -62 -123 -16 -47 -33 -95 -38 -106 -5 -11 -21 -54
-34 -96 -13 -42 -36 -99 -50 -126 -75 -148 -131 -314 -141 -417 -9 -82 -22
-153 -35 -175 -17 -32 -5 -189 20 -261 46 -130 141 -278 254 -395 66 -67 76
-73 141 -90 39 -9 97 -28 130 -40 119 -46 237 -56 360 -31 39 8 108 18 155 21
138 11 201 47 366 211 98 97 113 124 130 224 3 14 9 48 14 75 5 28 12 73 16
100 3 28 8 59 10 70 6 29 6 204 0 214 -3 4 -8 22 -11 39 -7 44 -33 119 -57
167 -27 52 -118 185 -128 185 -4 0 -36 36 -70 81 -34 44 -73 84 -86 89 -52 20
-344 32 -479 21 -77 -7 -169 9 -187 32 -10 12 -18 26 -18 30 0 5 19 47 42 94
33 67 55 95 102 136 34 29 92 82 131 118 143 136 271 242 327 270 121 61 277
117 348 124 86 9 113 26 130 84 10 37 -2 88 -27 108 -36 28 -105 53 -166 58
-56 4 -72 1 -162 -35z m-405 -1253 c8 -2 38 -7 65 -12 98 -15 147 -40 182 -92
39 -60 55 -91 97 -196 32 -80 33 -84 21 -142 -7 -33 -10 -79 -8 -102 12 -125
-92 -270 -292 -405 -49 -33 -94 -61 -100 -62 -5 -1 -15 -4 -20 -8 -18 -11 -91
8 -137 35 -38 22 -121 102 -145 140 -5 7 -38 38 -75 70 -98 85 -111 109 -107
210 2 45 -3 107 -10 138 -15 64 -11 91 22 140 12 19 28 53 35 76 13 45 52 83
85 83 17 0 143 71 157 89 3 4 19 17 35 30 27 21 37 23 105 17 41 -3 82 -8 90
-9z"/>
<path d="M4565 4873 c-38 -8 -109 -30 -158 -49 -174 -67 -285 -151 -354 -265
-35 -59 -103 -296 -105 -364 0 -23 19 -104 42 -181 38 -124 55 -185 65 -235 2
-10 -33 -52 -87 -105 -72 -71 -178 -206 -178 -227 0 -2 -20 -39 -45 -82 -57
-101 -78 -202 -79 -380 0 -84 5 -141 18 -200 2 -5 6 -31 11 -58 4 -26 21 -66
37 -90 16 -23 47 -70 69 -104 33 -51 132 -143 153 -143 3 0 50 -25 103 -55
151 -85 270 -127 401 -140 111 -11 199 -18 219 -17 29 2 114 36 160 65 21 13
56 31 78 41 199 89 227 112 350 281 118 163 120 166 131 258 3 23 7 52 9 63 9
41 20 160 20 209 0 31 -15 95 -39 166 -31 95 -48 130 -94 190 -69 92 -84 131
-71 188 5 24 17 57 25 75 19 36 87 129 122 166 72 76 92 153 87 331 l-3 86
-82 159 c-70 135 -93 170 -154 232 -139 142 -200 169 -431 188 -136 11 -148
11 -220 -3z m158 -244 c23 -12 49 -27 57 -35 9 -7 34 -16 55 -20 81 -12 97
-25 153 -125 29 -52 64 -113 77 -137 36 -61 34 -132 -6 -241 -39 -106 -85
-158 -184 -206 -115 -56 -154 -60 -260 -30 -140 41 -174 60 -227 130 -25 34
-60 87 -78 119 -29 50 -32 63 -27 113 9 91 65 191 161 287 83 82 99 96 126
109 8 5 35 19 60 32 25 14 46 25 48 25 1 0 22 -10 45 -21z m8 -1114 c91 -38
100 -45 176 -137 114 -138 142 -181 154 -239 5 -30 17 -79 26 -109 19 -66 19
-106 -2 -166 -40 -117 -89 -171 -221 -241 -44 -23 -122 -66 -173 -97 -98 -58
-106 -60 -204 -58 -51 2 -74 10 -183 67 -69 36 -135 72 -147 80 -26 17 -74
106 -84 156 -3 19 -26 64 -50 100 -23 36 -44 77 -45 90 0 13 10 51 24 84 25
60 34 120 19 130 -5 2 -7 19 -5 36 6 47 128 160 224 207 41 20 98 51 126 69
53 35 58 37 139 47 27 4 52 10 55 13 11 12 110 -7 171 -32z"/>
</g>
</svg>
